<svg xmlns="http://www.w3.org/2000/svg" width="16" height="16" viewBox="0 0 16 16">
    <path data-name="사각형 5" style="fill:none" d="M0 0h16v16H0z"/>
    <path data-name="Vector (3)" d="M6.286 3.429a2.857 2.857 0 1 0 2.02.837 2.857 2.857 0 0 0-2.02-.837zm0 4.571A1.714 1.714 0 1 1 7.5 7.5a1.714 1.714 0 0 1-1.214.5zm0-8A6.293 6.293 0 0 0 0 6.286a10.724 10.724 0 0 0 3 6.875A18.157 18.157 0 0 0 5.961 15.9a.571.571 0 0 0 .656 0 18.157 18.157 0 0 0 2.955-2.736 10.739 10.739 0 0 0 3-6.875A6.293 6.293 0 0 0 6.286 0zm0 14.714c-1.181-.929-5.143-4.339-5.143-8.429a5.143 5.143 0 1 1 10.286 0c0 4.089-3.963 7.501-5.143 8.429z" transform="translate(2)" style="fill:#666"/>
</svg>
