<svg xmlns="http://www.w3.org/2000/svg" width="16" height="17.843" viewBox="0 0 16 17.843">
    <path data-name="사각형 6" transform="translate(0 .967)" style="fill:none" d="M0 0h16v16H0z"/>
    <path d="m1.889.351.862-.275a1.65 1.65 0 0 1 2.014.974l.688 1.622a1.853 1.853 0 0 1-.411 2.054L3.528 6.165A6.409 6.409 0 0 0 4.4 8.706a6.945 6.945 0 0 0 1.817 2.076l1.821-.608a1.628 1.628 0 0 1 1.864.657l.986 1.448a1.857 1.857 0 0 1-.206 2.333l-.655.657a2.415 2.415 0 0 1-2.442.622q-3.047-.95-5.6-5.642T.171 2.274A2.609 2.609 0 0 1 1.891.351z" transform="rotate(-11 11.597 -4.124)" style="fill:#666"/>
</svg>
